<?xml version="1.0" encoding="utf-8"?>
<svg width="349px" height="628px" viewBox="0 0 349 628" version="1.1" xmlns:xlink="http://www.w3.org/1999/xlink" xmlns="http://www.w3.org/2000/svg">
  <desc>Created with Lunacy</desc>
  <defs>
    <linearGradient x1="3.42657924" y1="4.210322" x2="7.10542736E-15" y2="-0.114895135" id="gradient_1">
      <stop offset="0" stop-color="#31FB9A" />
      <stop offset="0.122424573" stop-color="#31FBE6" />
      <stop offset="0.8464046" stop-color="#0088FF" />
      <stop offset="1" stop-color="#1054FF" />
      <stop offset="1" stop-color="#124BFF" />
    </linearGradient>
    <path d="M0 0L85.7401 0L85.7401 85.5808L0 85.5808L0 0Z" transform="translate(4.711111E-05 0.4852857)" id="path_1" />
    <path d="M0 0L228.2 0L228.2 227.778L0 227.778L0 0Z" transform="translate(0.2735271 0.1014774)" id="path_2" />
    <path d="M0 0L228.2 0L228.2 227.778L0 227.778L0 0Z" transform="translate(0.5578898 0.7581179)" id="path_3" />
    <clipPath id="mask_1">
      <use xlink:href="#path_1" />
    </clipPath>
    <clipPath id="mask_2">
      <use xlink:href="#path_2" />
    </clipPath>
    <clipPath id="mask_3">
      <use xlink:href="#path_3" />
    </clipPath>
  </defs>
  <g id="Group-6" transform="matrix(0.7071068 0.7071068 -0.7071068 0.7071068 48.78854 0)">
    <g id="Group-40-Copy-5" transform="translate(-0.0001220703 68)">
      <g id="Group-3" transform="matrix(-0.7071068 -0.7071068 0.7071068 -0.7071068 211.575 394.5651)">
        <path d="M0 0L85.7401 0L85.7401 85.5808L0 85.5808L0 0Z" transform="translate(4.711111E-05 0.4852857)" id="Clip-2" fill="none" stroke="none" />
        <g clip-path="url(#mask_1)">
          <path d="M14.6909 85.5812C-4.89696 66.0297 -4.89696 34.2162 14.6909 14.6637C34.2788 -4.88789 66.1522 -4.88789 85.7401 14.6637L85.074 15.3286C65.8536 -3.85619 34.5774 -3.85619 15.357 15.3286C-3.86335 34.5143 -3.86335 65.7315 15.357 84.9163L14.6909 85.5812Z" transform="translate(4.711111E-05 0.4848625)" id="Fill-1" fill="url(#gradient_1)" stroke="none" />
        </g>
      </g>
      <path d="M12.2268 71.5747C-4.09706 55.2509 -4.0724 28.6653 12.2817 12.3112C20.2105 4.38236 30.7379 0.0103934 41.9249 1.85052e-05C53.1119 -0.0103564 63.6312 4.3421 71.5453 12.2562L70.8792 12.9224C63.1428 5.186 52.8597 0.931226 41.9241 0.941368C30.9884 0.951509 20.6974 5.22536 12.9467 12.9761C-3.04002 28.9628 -3.06412 54.9515 12.8929 70.9086L12.2268 71.5747Z" transform="matrix(-0.7071068 -0.7071068 0.7071068 -0.7071068 211.8411 382.5385)" id="Fill-4" fill="url(#gradient_1)" stroke="none" />
      <path d="M9.83295 57.4208C3.4838 51.0726 -0.00830849 42.6329 1.48445e-05 33.6581C0.00833818 24.6833 3.5161 16.238 9.87705 9.87705C16.237 3.5161 24.6833 0.00833818 33.6581 1.48445e-05C42.6329 -0.00830849 51.0717 3.4838 57.4208 9.83295L56.7547 10.4991C50.5833 4.3277 42.3807 0.933274 33.6572 0.941364C24.9337 0.949454 16.7248 4.3591 10.542 10.542C4.3591 16.7248 0.949454 24.9337 0.941364 33.6572C0.933274 42.3807 4.3277 50.5833 10.4991 56.7547L9.83295 57.4208Z" transform="matrix(-0.7071068 -0.7071068 0.7071068 -0.7071068 211.8618 370.8375)" id="Fill-6" fill="url(#gradient_1)" stroke="none" />
      <path d="M7.40876 43.266C2.62456 38.4827 -0.00626056 32.1235 1.11878e-05 25.3609C0.00628293 18.5982 2.6489 12.2351 7.44199 7.44198C12.2351 2.6489 18.5982 0.00628293 25.3609 1.11878e-05C32.1235 -0.00626056 38.4827 2.62456 43.266 7.40876L42.5998 8.07491C37.9943 3.46846 31.8713 0.935322 25.36 0.94136C18.8487 0.947399 12.7219 3.4919 8.1069 8.1069C3.4919 12.7219 0.947399 18.8487 0.941361 25.36C0.935322 31.8713 3.46846 37.9943 8.07491 42.5998L7.40876 43.266Z" transform="matrix(-0.7071068 -0.7071068 0.7071068 -0.7071068 211.8619 359.1147)" id="Fill-8" fill="url(#gradient_1)" stroke="none" />
      <path d="M4.97327 29.0998C-1.66649 22.4601 -1.65646 11.6468 4.99563 4.99563C11.6477 -1.65646 22.461 -1.66649 29.0998 4.97328L28.4337 5.63943C22.1616 -0.63261 11.9461 -0.624078 5.66054 5.66055C-0.624077 11.9452 -0.633551 22.1607 5.63942 28.4337L4.97327 29.0998Z" transform="matrix(-0.7071068 -0.7071068 0.7071068 -0.7071068 211.8622 347.3752)" id="Fill-10" fill="url(#gradient_1)" stroke="none" />
      <path d="M2.55497 14.9518C-0.856141 11.5407 -0.850988 5.98483 2.56645 2.56645C5.98483 -0.850988 11.5407 -0.856141 14.9518 2.55497L14.2856 3.22112C11.2404 0.176797 6.28228 0.181395 3.23137 3.23137C0.181395 6.28228 0.176796 11.2413 3.22112 14.2856L2.55497 14.9518Z" transform="matrix(-0.7071068 -0.7071068 0.7071068 -0.7071068 211.8617 335.6614)" id="Fill-12" fill="url(#gradient_1)" stroke="none" />
      <path d="M227.113 227.779L-8.5981e-13 0.666151L0.666151 0L227.779 227.113L227.113 227.779Z" transform="matrix(-0.7071068 -0.7071068 0.7071068 -0.7071068 253.3354 323.7532)" id="Fill-14" fill="url(#gradient_1)" stroke="none" />
      <path d="M227.113 227.778L-8.56649e-13 0.666151L0.666151 4.31484e-13L227.779 227.112L227.113 227.778Z" transform="matrix(-0.7071068 -0.7071068 0.7071068 -0.7071068 245.0411 323.7532)" id="Fill-16" fill="url(#gradient_1)" stroke="none" />
      <path d="M227.113 227.779L-8.5981e-13 0.666151L0.666151 0L227.779 227.113L227.113 227.779Z" transform="matrix(-0.7071068 -0.7071068 0.7071068 -0.7071068 236.7461 323.7539)" id="Fill-18" fill="url(#gradient_1)" stroke="none" />
      <path d="M227.112 227.779L-8.53485e-13 0.666151L0.666151 -4.29905e-13L227.778 227.113L227.112 227.779Z" transform="matrix(-0.7071068 -0.7071068 0.7071068 -0.7071068 228.4511 323.7532)" id="Fill-20" fill="url(#gradient_1)" stroke="none" />
      <path d="M227.113 227.778L0 0.666151L0.666151 4.30694e-13L227.779 227.112L227.113 227.778Z" transform="matrix(-0.7071068 -0.7071068 0.7071068 -0.7071068 220.1569 323.7532)" id="Fill-22" fill="url(#gradient_1)" stroke="none" />
      <path d="M227.112 227.779L-1.28655e-12 0.666151L0.666151 4.30695e-13L227.778 227.113L227.112 227.779Z" transform="matrix(-0.7071068 -0.7071068 0.7071068 -0.7071068 203.5669 323.7532)" id="Fill-24" fill="url(#gradient_1)" stroke="none" />
      <path d="M227.113 227.779L-4.29905e-13 0.666151L0.666151 0L227.779 227.113L227.113 227.779Z" transform="matrix(-0.7071068 -0.7071068 0.7071068 -0.7071068 195.2726 323.7532)" id="Fill-26" fill="url(#gradient_1)" stroke="none" />
      <path d="M227.113 227.778L0 0.666151L0.666151 1.58053e-15L227.779 227.112L227.113 227.778Z" transform="matrix(-0.7071068 -0.7071068 0.7071068 -0.7071068 186.9783 323.7532)" id="Fill-28" fill="url(#gradient_1)" stroke="none" />
      <path d="M227.113 227.779L-8.5981e-13 0.666151L0.666151 0L227.779 227.113L227.113 227.779Z" transform="matrix(-0.7071068 -0.7071068 0.7071068 -0.7071068 178.6833 323.7539)" id="Fill-30" fill="url(#gradient_1)" stroke="none" />
      <path d="M227.112 227.779L-8.56646e-13 0.666151L0.666151 -4.29905e-13L227.778 227.113L227.112 227.779Z" transform="matrix(-0.7071068 -0.7071068 0.7071068 -0.7071068 170.3883 323.7531)" id="Fill-32" fill="url(#gradient_1)" stroke="none" />
      <g id="Group-36" transform="matrix(-0.7071068 -0.7071068 0.7071068 -0.7071068 162.3656 324.1671)">
        <path d="M0 0L228.2 0L228.2 227.778L0 227.778L0 0Z" transform="translate(0.2735271 0.1014774)" id="Clip-35" fill="none" stroke="none" />
        <g clip-path="url(#mask_2)">
          <path d="M227.534 227.778L0 0.664917L0.666151 0L228.201 227.113L227.534 227.778Z" transform="translate(0.2735271 0.1014774)" id="Fill-34" fill="url(#gradient_1)" stroke="none" />
        </g>
      </g>
      <g id="Group-39" transform="matrix(-0.7071068 -0.7071068 0.7071068 -0.7071068 261.6371 324.8322)">
        <path d="M0 0L228.2 0L228.2 227.778L0 227.778L0 0Z" transform="translate(0.5578898 0.7581179)" id="Clip-38" fill="none" stroke="none" />
        <g clip-path="url(#mask_3)">
          <path d="M227.533 227.778L0 0.664917L0.666151 0L228.2 227.113L227.533 227.778Z" transform="translate(0.5578898 0.7581179)" id="Fill-37" fill="url(#gradient_1)" stroke="none" />
        </g>
      </g>
    </g>
    <g id="Group-40-Copy-7" transform="matrix(-0.9999999 8.42937E-08 -8.42937E-08 -0.9999999 424 394.9999)">
      <g id="Group-3" transform="matrix(-0.7071068 -0.7071068 0.7071068 -0.7071068 211.575 394.5651)">
        <path d="M0 0L85.7401 0L85.7401 85.5808L0 85.5808L0 0Z" transform="translate(4.711111E-05 0.4852857)" id="Clip-2" fill="none" stroke="none" />
        <g clip-path="url(#mask_1)">
          <path d="M14.6909 85.5812C-4.89696 66.0297 -4.89696 34.2162 14.6909 14.6637C34.2788 -4.88789 66.1522 -4.88789 85.7401 14.6637L85.074 15.3286C65.8536 -3.85619 34.5774 -3.85619 15.357 15.3286C-3.86335 34.5143 -3.86335 65.7315 15.357 84.9163L14.6909 85.5812Z" transform="translate(4.711111E-05 0.4848625)" id="Fill-1" fill="url(#gradient_1)" stroke="none" />
        </g>
      </g>
      <path d="M12.2268 71.5747C-4.09706 55.2509 -4.0724 28.6653 12.2817 12.3112C20.2105 4.38236 30.7379 0.0103934 41.9249 1.85052e-05C53.1119 -0.0103564 63.6312 4.3421 71.5453 12.2562L70.8792 12.9224C63.1428 5.186 52.8597 0.931226 41.9241 0.941368C30.9884 0.951509 20.6974 5.22536 12.9467 12.9761C-3.04002 28.9628 -3.06412 54.9515 12.8929 70.9086L12.2268 71.5747Z" transform="matrix(-0.7071068 -0.7071068 0.7071068 -0.7071068 211.8411 382.5385)" id="Fill-4" fill="url(#gradient_1)" stroke="none" />
      <path d="M9.83295 57.4208C3.4838 51.0726 -0.00830849 42.6329 1.48445e-05 33.6581C0.00833818 24.6833 3.5161 16.238 9.87705 9.87705C16.237 3.5161 24.6833 0.00833818 33.6581 1.48445e-05C42.6329 -0.00830849 51.0717 3.4838 57.4208 9.83295L56.7547 10.4991C50.5833 4.3277 42.3807 0.933274 33.6572 0.941364C24.9337 0.949454 16.7248 4.3591 10.542 10.542C4.3591 16.7248 0.949454 24.9337 0.941364 33.6572C0.933274 42.3807 4.3277 50.5833 10.4991 56.7547L9.83295 57.4208Z" transform="matrix(-0.7071068 -0.7071068 0.7071068 -0.7071068 211.8618 370.8375)" id="Fill-6" fill="url(#gradient_1)" stroke="none" />
      <path d="M7.40876 43.266C2.62456 38.4827 -0.00626056 32.1235 1.11878e-05 25.3609C0.00628293 18.5982 2.6489 12.2351 7.44199 7.44198C12.2351 2.6489 18.5982 0.00628293 25.3609 1.11878e-05C32.1235 -0.00626056 38.4827 2.62456 43.266 7.40876L42.5998 8.07491C37.9943 3.46846 31.8713 0.935322 25.36 0.94136C18.8487 0.947399 12.7219 3.4919 8.1069 8.1069C3.4919 12.7219 0.947399 18.8487 0.941361 25.36C0.935322 31.8713 3.46846 37.9943 8.07491 42.5998L7.40876 43.266Z" transform="matrix(-0.7071068 -0.7071068 0.7071068 -0.7071068 211.8619 359.1147)" id="Fill-8" fill="url(#gradient_1)" stroke="none" />
      <path d="M4.97327 29.0998C-1.66649 22.4601 -1.65646 11.6468 4.99563 4.99563C11.6477 -1.65646 22.461 -1.66649 29.0998 4.97328L28.4337 5.63943C22.1616 -0.63261 11.9461 -0.624078 5.66054 5.66055C-0.624077 11.9452 -0.633551 22.1607 5.63942 28.4337L4.97327 29.0998Z" transform="matrix(-0.7071068 -0.7071068 0.7071068 -0.7071068 211.8622 347.3752)" id="Fill-10" fill="url(#gradient_1)" stroke="none" />
      <path d="M2.55497 14.9518C-0.856141 11.5407 -0.850988 5.98483 2.56645 2.56645C5.98483 -0.850988 11.5407 -0.856141 14.9518 2.55497L14.2856 3.22112C11.2404 0.176797 6.28228 0.181395 3.23137 3.23137C0.181395 6.28228 0.176796 11.2413 3.22112 14.2856L2.55497 14.9518Z" transform="matrix(-0.7071068 -0.7071068 0.7071068 -0.7071068 211.8617 335.6614)" id="Fill-12" fill="url(#gradient_1)" stroke="none" />
      <path d="M227.113 227.779L-8.5981e-13 0.666151L0.666151 0L227.779 227.113L227.113 227.779Z" transform="matrix(-0.7071068 -0.7071068 0.7071068 -0.7071068 253.3354 323.7532)" id="Fill-14" fill="url(#gradient_1)" stroke="none" />
      <path d="M227.113 227.778L-8.56649e-13 0.666151L0.666151 4.31484e-13L227.779 227.112L227.113 227.778Z" transform="matrix(-0.7071068 -0.7071068 0.7071068 -0.7071068 245.0411 323.7532)" id="Fill-16" fill="url(#gradient_1)" stroke="none" />
      <path d="M227.113 227.779L-8.5981e-13 0.666151L0.666151 0L227.779 227.113L227.113 227.779Z" transform="matrix(-0.7071068 -0.7071068 0.7071068 -0.7071068 236.7461 323.7539)" id="Fill-18" fill="url(#gradient_1)" stroke="none" />
      <path d="M227.112 227.779L-8.53485e-13 0.666151L0.666151 -4.29905e-13L227.778 227.113L227.112 227.779Z" transform="matrix(-0.7071068 -0.7071068 0.7071068 -0.7071068 228.4511 323.7532)" id="Fill-20" fill="url(#gradient_1)" stroke="none" />
      <path d="M227.113 227.778L0 0.666151L0.666151 4.30694e-13L227.779 227.112L227.113 227.778Z" transform="matrix(-0.7071068 -0.7071068 0.7071068 -0.7071068 220.1569 323.7532)" id="Fill-22" fill="url(#gradient_1)" stroke="none" />
      <path d="M227.112 227.779L-1.28655e-12 0.666151L0.666151 4.30695e-13L227.778 227.113L227.112 227.779Z" transform="matrix(-0.7071068 -0.7071068 0.7071068 -0.7071068 203.5669 323.7532)" id="Fill-24" fill="url(#gradient_1)" stroke="none" />
      <path d="M227.113 227.779L-4.29905e-13 0.666151L0.666151 0L227.779 227.113L227.113 227.779Z" transform="matrix(-0.7071068 -0.7071068 0.7071068 -0.7071068 195.2726 323.7532)" id="Fill-26" fill="url(#gradient_1)" stroke="none" />
      <path d="M227.113 227.778L0 0.666151L0.666151 1.58053e-15L227.779 227.112L227.113 227.778Z" transform="matrix(-0.7071068 -0.7071068 0.7071068 -0.7071068 186.9783 323.7532)" id="Fill-28" fill="url(#gradient_1)" stroke="none" />
      <path d="M227.113 227.779L-8.5981e-13 0.666151L0.666151 0L227.779 227.113L227.113 227.779Z" transform="matrix(-0.7071068 -0.7071068 0.7071068 -0.7071068 178.6833 323.7539)" id="Fill-30" fill="url(#gradient_1)" stroke="none" />
      <path d="M227.112 227.779L-8.56646e-13 0.666151L0.666151 -4.29905e-13L227.778 227.113L227.112 227.779Z" transform="matrix(-0.7071068 -0.7071068 0.7071068 -0.7071068 170.3883 323.7531)" id="Fill-32" fill="url(#gradient_1)" stroke="none" />
      <g id="Group-36" transform="matrix(-0.7071068 -0.7071068 0.7071068 -0.7071068 162.3656 324.1671)">
        <path d="M0 0L228.2 0L228.2 227.778L0 227.778L0 0Z" transform="translate(0.2735271 0.1014774)" id="Clip-35" fill="none" stroke="none" />
        <g clip-path="url(#mask_2)">
          <path d="M227.534 227.778L0 0.664917L0.666151 0L228.201 227.113L227.534 227.778Z" transform="translate(0.2735271 0.1014774)" id="Fill-34" fill="url(#gradient_1)" stroke="none" />
        </g>
      </g>
      <g id="Group-39" transform="matrix(-0.7071068 -0.7071068 0.7071068 -0.7071068 261.6371 324.8322)">
        <path d="M0 0L228.2 0L228.2 227.778L0 227.778L0 0Z" transform="translate(0.5578898 0.7581179)" id="Clip-38" fill="none" stroke="none" />
        <g clip-path="url(#mask_3)">
          <path d="M227.533 227.778L0 0.664917L0.666151 0L228.2 227.113L227.533 227.778Z" transform="translate(0.5578898 0.7581179)" id="Fill-37" fill="url(#gradient_1)" stroke="none" />
        </g>
      </g>
    </g>
  </g>
</svg>